<svg width="76" height="76" viewBox="0 0 76 76" fill="none" xmlns="http://www.w3.org/2000/svg">
<g id="octicon:person-24">
<path id="Vector" d="M38 7.91666C41.7243 7.91552 45.3509 9.10825 48.3475 11.3198C51.3441 13.5313 53.5529 16.6452 54.6497 20.2044C55.7464 23.7635 55.6734 27.5805 54.4413 31.0951C53.2093 34.6097 50.883 37.6369 47.804 39.7322C53.1483 41.6923 57.7835 45.2071 61.1132 49.8241C64.4429 54.441 66.3146 59.9489 66.4873 65.6387C66.5035 65.9545 66.4564 66.2704 66.3488 66.5677C66.2413 66.8651 66.0754 67.138 65.861 67.3704C65.6465 67.6029 65.3878 67.7901 65.1001 67.9212C64.8123 68.0523 64.5012 68.1246 64.1851 68.1339C63.869 68.1432 63.5543 68.0892 63.2593 67.9752C62.9643 67.8612 62.6951 67.6895 62.4674 67.47C62.2397 67.2506 62.0581 66.9879 61.9333 66.6973C61.8084 66.4068 61.7429 66.0942 61.7405 65.778C61.5519 59.6076 58.9682 53.7531 54.5369 49.4551C50.1056 45.1572 44.1749 42.7535 38.0016 42.7535C31.8283 42.7535 25.8976 45.1572 21.4663 49.4551C17.035 53.7531 14.4512 59.6076 14.2627 65.778C14.2438 66.4079 13.9754 67.0045 13.5167 67.4365C13.0579 67.8685 12.4463 68.1006 11.8164 68.0817C11.1865 68.0629 10.5899 67.7945 10.1579 67.3357C9.72587 66.877 9.49377 66.2654 9.51267 65.6355C9.68604 59.9463 11.558 54.4391 14.8876 49.8228C18.2173 45.2064 22.8522 41.6921 28.196 39.7322C25.117 37.6369 22.7908 34.6097 21.5587 31.0951C20.3266 27.5805 20.2536 23.7635 21.3503 20.2044C22.4471 16.6452 24.6559 13.5313 27.6525 11.3198C30.6491 9.10825 34.2757 7.91552 38 7.91666ZM25.3333 25.3333C25.3333 28.6927 26.6679 31.9146 29.0433 34.29C31.4188 36.6655 34.6406 38 38 38C41.3594 38 44.5812 36.6655 46.9567 34.29C49.3321 31.9146 50.6667 28.6927 50.6667 25.3333C50.6667 21.9739 49.3321 18.7521 46.9567 16.3766C44.5812 14.0012 41.3594 12.6667 38 12.6667C34.6406 12.6667 31.4188 14.0012 29.0433 16.3766C26.6679 18.7521 25.3333 21.9739 25.3333 25.3333Z" fill="white"/>
</g>
</svg>
