<svg width="197" height="44" viewBox="0 0 197 44" fill="none" xmlns="http://www.w3.org/2000/svg">
<path d="M20.84 15.84C20.7867 16.52 20.7467 17.1733 20.72 17.8C20.7067 18.4267 20.7 18.9067 20.7 19.24C20.7 19.5333 20.7067 19.8133 20.72 20.08C20.7333 20.3467 20.7467 20.5733 20.76 20.76H20.3C20.0867 19.64 19.8133 18.7533 19.48 18.1C19.16 17.4467 18.7733 16.9867 18.32 16.72C17.8667 16.44 17.3333 16.3 16.72 16.3H16.26V27.72C16.26 28.2533 16.3133 28.6533 16.42 28.92C16.54 29.1867 16.7533 29.3667 17.06 29.46C17.3667 29.54 17.8133 29.5867 18.4 29.6V30C17.9867 29.9867 17.4333 29.9733 16.74 29.96C16.06 29.9467 15.3467 29.94 14.6 29.94C13.8667 29.94 13.1733 29.9467 12.52 29.96C11.8667 29.9733 11.34 29.9867 10.94 30V29.6C11.54 29.5867 11.9933 29.54 12.3 29.46C12.6067 29.3667 12.8133 29.1867 12.92 28.92C13.0267 28.6533 13.08 28.2533 13.08 27.72V16.3H12.64C12.0267 16.3 11.4933 16.44 11.04 16.72C10.5867 16.9867 10.2 17.4467 9.88 18.1C9.56 18.74 9.28 19.6267 9.04 20.76H8.58C8.60667 20.5733 8.62 20.3467 8.62 20.08C8.63333 19.8133 8.64 19.5333 8.64 19.24C8.64 18.9067 8.62667 18.4267 8.6 17.8C8.58667 17.1733 8.55333 16.52 8.5 15.84C9.11333 15.8533 9.78 15.8667 10.5 15.88C11.2333 15.8933 11.9667 15.9 12.7 15.9C13.4333 15.9 14.0933 15.9 14.68 15.9C15.28 15.9 15.94 15.9 16.66 15.9C17.3933 15.9 18.1267 15.8933 18.86 15.88C19.5933 15.8667 20.2533 15.8533 20.84 15.84ZM25.7822 14.36V21.24C26.1155 20.5467 26.5622 20.0667 27.1222 19.8C27.6955 19.52 28.3355 19.38 29.0422 19.38C29.6155 19.38 30.0755 19.4533 30.4222 19.6C30.7689 19.7333 31.0422 19.92 31.2422 20.16C31.4689 20.4133 31.6289 20.74 31.7222 21.14C31.8289 21.54 31.8822 22.08 31.8822 22.76V28.14C31.8822 28.7 31.9755 29.08 32.1622 29.28C32.3622 29.48 32.6955 29.58 33.1622 29.58V30C32.9089 29.9867 32.5222 29.9733 32.0022 29.96C31.4955 29.9333 31.0022 29.92 30.5222 29.92C30.0022 29.92 29.4955 29.9333 29.0022 29.96C28.5222 29.9733 28.1622 29.9867 27.9222 30V29.58C28.3222 29.58 28.6022 29.48 28.7622 29.28C28.9222 29.08 29.0022 28.7 29.0022 28.14V21.92C29.0022 21.5867 28.9689 21.3 28.9022 21.06C28.8355 20.8067 28.7089 20.6133 28.5222 20.48C28.3489 20.3333 28.0955 20.26 27.7622 20.26C27.4022 20.26 27.0689 20.36 26.7622 20.56C26.4689 20.7467 26.2289 21.0133 26.0422 21.36C25.8689 21.7067 25.7822 22.1067 25.7822 22.56V28.14C25.7822 28.7 25.8622 29.08 26.0222 29.28C26.1822 29.48 26.4622 29.58 26.8622 29.58V30C26.6222 29.9867 26.2689 29.9733 25.8022 29.96C25.3355 29.9333 24.8622 29.92 24.3822 29.92C23.8622 29.92 23.3355 29.9333 22.8022 29.96C22.2822 29.9733 21.8889 29.9867 21.6222 30V29.58C22.0889 29.58 22.4155 29.48 22.6022 29.28C22.8022 29.08 22.9022 28.7 22.9022 28.14V16.76C22.9022 16.16 22.8089 15.72 22.6222 15.44C22.4489 15.1467 22.1155 15 21.6222 15V14.58C22.0489 14.62 22.4622 14.64 22.8622 14.64C23.4089 14.64 23.9289 14.62 24.4222 14.58C24.9155 14.5267 25.3689 14.4533 25.7822 14.36ZM39.0502 19.38C40.2235 19.38 41.1435 19.7267 41.8102 20.42C42.4768 21.1133 42.8102 22.2467 42.8102 23.82H36.2302L36.1902 23.44H40.2902C40.3035 22.7867 40.2635 22.1867 40.1702 21.64C40.0768 21.08 39.9302 20.6333 39.7302 20.3C39.5302 19.9667 39.2635 19.8 38.9302 19.8C38.4635 19.8 38.0635 20.0933 37.7302 20.68C37.4102 21.2667 37.2168 22.24 37.1502 23.6L37.2102 23.72C37.1968 23.88 37.1835 24.0467 37.1702 24.22C37.1702 24.3933 37.1702 24.5733 37.1702 24.76C37.1702 25.68 37.2968 26.4267 37.5502 27C37.8168 27.5733 38.1502 27.9933 38.5502 28.26C38.9502 28.5133 39.3568 28.64 39.7702 28.64C40.0502 28.64 40.3368 28.6 40.6302 28.52C40.9368 28.4267 41.2435 28.2667 41.5502 28.04C41.8568 27.8 42.1435 27.4667 42.4102 27.04L42.7702 27.16C42.6102 27.6667 42.3568 28.16 42.0102 28.64C41.6635 29.12 41.2235 29.5133 40.6902 29.82C40.1568 30.1267 39.5168 30.28 38.7702 30.28C37.8635 30.28 37.0635 30.0867 36.3702 29.7C35.6768 29.3133 35.1302 28.7267 34.7302 27.94C34.3435 27.1533 34.1502 26.1533 34.1502 24.94C34.1502 23.7 34.3568 22.6667 34.7702 21.84C35.1968 21.0133 35.7768 20.4 36.5102 20C37.2568 19.5867 38.1035 19.38 39.0502 19.38ZM55.4963 19.38C56.5363 19.38 57.3963 19.8067 58.0763 20.66C58.7696 21.5 59.1163 22.8 59.1163 24.56C59.1163 25.9467 58.9029 27.06 58.4763 27.9C58.0629 28.74 57.5096 29.3467 56.8163 29.72C56.1229 30.0933 55.3629 30.28 54.5363 30.28C53.9896 30.28 53.4829 30.1867 53.0163 30C52.5496 29.8133 52.1496 29.5067 51.8163 29.08L52.0963 28.98C52.3363 29.2733 52.6163 29.4933 52.9363 29.64C53.2696 29.7867 53.5963 29.86 53.9163 29.86C54.6496 29.86 55.1963 29.4467 55.5563 28.62C55.9163 27.7933 56.0963 26.5333 56.0963 24.84C56.0963 23.6933 56.0229 22.7867 55.8763 22.12C55.7429 21.44 55.5429 20.96 55.2763 20.68C55.0096 20.3867 54.6896 20.24 54.3163 20.24C53.8496 20.24 53.4229 20.4333 53.0363 20.82C52.6496 21.1933 52.4296 21.72 52.3763 22.4L52.2763 21.7C52.5163 20.94 52.9229 20.3667 53.4963 19.98C54.0696 19.58 54.7363 19.38 55.4963 19.38ZM52.4363 14.36V29.6C52.1029 29.5467 51.7629 29.5467 51.4163 29.6C51.0696 29.6533 50.7496 29.7467 50.4563 29.88C50.1629 30 49.9163 30.1467 49.7163 30.32L49.4163 30.14C49.4696 29.9533 49.5029 29.7667 49.5163 29.58C49.5429 29.3933 49.5563 29.2067 49.5563 29.02V16.76C49.5563 16.16 49.4629 15.72 49.2763 15.44C49.1029 15.1467 48.7696 15 48.2763 15V14.58C48.7029 14.62 49.1163 14.64 49.5163 14.64C50.0629 14.64 50.5829 14.62 51.0763 14.58C51.5696 14.5267 52.0229 14.4533 52.4363 14.36ZM64.2397 14.34V28.14C64.2397 28.7 64.333 29.08 64.5197 29.28C64.7197 29.48 65.053 29.58 65.5197 29.58V30C65.2664 29.9867 64.8864 29.9733 64.3797 29.96C63.873 29.9333 63.3597 29.92 62.8397 29.92C62.3197 29.92 61.793 29.9333 61.2597 29.96C60.7397 29.9733 60.3464 29.9867 60.0797 30V29.58C60.5464 29.58 60.873 29.48 61.0597 29.28C61.2597 29.08 61.3597 28.7 61.3597 28.14V16.74C61.3597 16.14 61.2664 15.7 61.0797 15.42C60.9064 15.1267 60.573 14.98 60.0797 14.98V14.56C60.5064 14.6 60.9197 14.62 61.3197 14.62C61.8664 14.62 62.3864 14.6 62.8797 14.56C63.373 14.5067 63.8264 14.4333 64.2397 14.34ZM71.3353 19.38C72.3086 19.38 73.162 19.56 73.8953 19.92C74.6286 20.28 75.202 20.86 75.6153 21.66C76.0286 22.46 76.2353 23.52 76.2353 24.84C76.2353 26.16 76.0286 27.22 75.6153 28.02C75.202 28.8067 74.6286 29.38 73.8953 29.74C73.162 30.1 72.3086 30.28 71.3353 30.28C70.3886 30.28 69.542 30.1 68.7953 29.74C68.062 29.38 67.482 28.8067 67.0553 28.02C66.642 27.22 66.4353 26.16 66.4353 24.84C66.4353 23.52 66.642 22.46 67.0553 21.66C67.482 20.86 68.062 20.28 68.7953 19.92C69.542 19.56 70.3886 19.38 71.3353 19.38ZM71.3353 19.78C70.802 19.78 70.3553 20.18 69.9953 20.98C69.6353 21.7667 69.4553 23.0533 69.4553 24.84C69.4553 26.6267 69.6353 27.9133 69.9953 28.7C70.3553 29.4867 70.802 29.88 71.3353 29.88C71.882 29.88 72.3286 29.4867 72.6753 28.7C73.0353 27.9133 73.2153 26.6267 73.2153 24.84C73.2153 23.0533 73.0353 21.7667 72.6753 20.98C72.3286 20.18 71.882 19.78 71.3353 19.78ZM84.9239 19.38C85.4839 19.38 85.9372 19.4533 86.2839 19.6C86.6439 19.7333 86.9239 19.92 87.1239 20.16C87.3372 20.4133 87.4906 20.74 87.5839 21.14C87.6906 21.54 87.7439 22.08 87.7439 22.76V28.14C87.7439 28.7 87.8372 29.08 88.0239 29.28C88.2239 29.48 88.5572 29.58 89.0239 29.58V30C88.7706 29.9867 88.3906 29.9733 87.8839 29.96C87.3772 29.9333 86.8772 29.92 86.3839 29.92C85.8772 29.92 85.3772 29.9333 84.8839 29.96C84.4039 29.9733 84.0372 29.9867 83.7839 30V29.58C84.1839 29.58 84.4639 29.48 84.6239 29.28C84.7839 29.08 84.8639 28.7 84.8639 28.14V21.92C84.8639 21.5867 84.8306 21.3 84.7639 21.06C84.6972 20.8067 84.5772 20.6133 84.4039 20.48C84.2306 20.3333 83.9706 20.26 83.6239 20.26C83.2639 20.26 82.9306 20.36 82.6239 20.56C82.3306 20.76 82.0906 21.04 81.9039 21.4C81.7306 21.7467 81.6439 22.14 81.6439 22.58V28.14C81.6439 28.7 81.7239 29.08 81.8839 29.28C82.0572 29.48 82.3372 29.58 82.7239 29.58V30C82.4839 29.9867 82.1306 29.9733 81.6639 29.96C81.2106 29.9333 80.7372 29.92 80.2439 29.92C79.7372 29.92 79.2172 29.9333 78.6839 29.96C78.1506 29.9733 77.7506 29.9867 77.4839 30V29.58C77.9506 29.58 78.2772 29.48 78.4639 29.28C78.6639 29.08 78.7639 28.7 78.7639 28.14V21.84C78.7639 21.24 78.6706 20.8 78.4839 20.52C78.3106 20.2267 77.9772 20.08 77.4839 20.08V19.66C77.9106 19.7 78.3239 19.72 78.7239 19.72C79.2839 19.72 79.8039 19.7 80.2839 19.66C80.7772 19.6067 81.2306 19.5333 81.6439 19.44V21.24C81.9772 20.56 82.4306 20.08 83.0039 19.8C83.5772 19.52 84.2172 19.38 84.9239 19.38ZM99.6091 14.34V27.8C99.6091 28.4 99.7024 28.8467 99.8891 29.14C100.076 29.42 100.409 29.56 100.889 29.56V29.98C100.476 29.94 100.062 29.92 99.6491 29.92C99.0891 29.92 98.5624 29.94 98.0691 29.98C97.5891 30.02 97.1424 30.0933 96.7291 30.2V16.74C96.7291 16.14 96.6357 15.7 96.4491 15.42C96.2757 15.1267 95.9424 14.98 95.4491 14.98V14.56C95.8757 14.6 96.2891 14.62 96.6891 14.62C97.2357 14.62 97.7557 14.6 98.2491 14.56C98.7424 14.5067 99.1957 14.4333 99.6091 14.34ZM94.5091 19.38C95.0957 19.38 95.6091 19.48 96.0491 19.68C96.5024 19.8667 96.8557 20.1867 97.1091 20.64L96.8691 20.86C96.6957 20.54 96.4624 20.3133 96.1691 20.18C95.8891 20.0333 95.5891 19.96 95.2691 19.96C94.5891 19.96 94.0491 20.36 93.6491 21.16C93.2491 21.9467 93.0557 23.1667 93.0691 24.82C93.0691 25.9533 93.1424 26.86 93.2891 27.54C93.4491 28.2067 93.6691 28.6867 93.9491 28.98C94.2424 29.2733 94.5757 29.42 94.9491 29.42C95.4024 29.42 95.8091 29.24 96.1691 28.88C96.5291 28.52 96.7224 28.0333 96.7491 27.42L96.8491 28.12C96.6491 28.8267 96.3224 29.3667 95.8691 29.74C95.4291 30.1 94.8491 30.28 94.1291 30.28C93.3424 30.28 92.6357 30.0867 92.0091 29.7C91.3957 29.3133 90.9157 28.72 90.5691 27.92C90.2224 27.1067 90.0491 26.06 90.0491 24.78C90.0491 23.5667 90.2424 22.5667 90.6291 21.78C91.0157 20.98 91.5424 20.38 92.2091 19.98C92.8891 19.58 93.6557 19.38 94.5091 19.38ZM106.882 19.38C108.056 19.38 108.976 19.7267 109.642 20.42C110.309 21.1133 110.642 22.2467 110.642 23.82H104.062L104.022 23.44H108.122C108.136 22.7867 108.096 22.1867 108.002 21.64C107.909 21.08 107.762 20.6333 107.562 20.3C107.362 19.9667 107.096 19.8 106.762 19.8C106.296 19.8 105.896 20.0933 105.562 20.68C105.242 21.2667 105.049 22.24 104.982 23.6L105.042 23.72C105.029 23.88 105.016 24.0467 105.002 24.22C105.002 24.3933 105.002 24.5733 105.002 24.76C105.002 25.68 105.129 26.4267 105.382 27C105.649 27.5733 105.982 27.9933 106.382 28.26C106.782 28.5133 107.189 28.64 107.602 28.64C107.882 28.64 108.169 28.6 108.462 28.52C108.769 28.4267 109.076 28.2667 109.382 28.04C109.689 27.8 109.976 27.4667 110.242 27.04L110.602 27.16C110.442 27.6667 110.189 28.16 109.842 28.64C109.496 29.12 109.056 29.5133 108.522 29.82C107.989 30.1267 107.349 30.28 106.602 30.28C105.696 30.28 104.896 30.0867 104.202 29.7C103.509 29.3133 102.962 28.7267 102.562 27.94C102.176 27.1533 101.982 26.1533 101.982 24.94C101.982 23.7 102.189 22.6667 102.602 21.84C103.029 21.0133 103.609 20.4 104.342 20C105.089 19.5867 105.936 19.38 106.882 19.38ZM121.668 19.38C122.188 19.38 122.662 19.44 123.088 19.56C123.528 19.6667 123.888 19.8067 124.168 19.98C124.515 20.1933 124.782 20.46 124.968 20.78C125.168 21.0867 125.268 21.4467 125.268 21.86C125.268 22.3267 125.122 22.7133 124.828 23.02C124.535 23.3133 124.155 23.46 123.688 23.46C123.222 23.46 122.848 23.3267 122.568 23.06C122.288 22.7933 122.148 22.4333 122.148 21.98C122.148 21.5533 122.282 21.2 122.548 20.92C122.815 20.6267 123.122 20.4333 123.468 20.34C123.362 20.2067 123.202 20.0933 122.988 20C122.775 19.9067 122.535 19.86 122.268 19.86C121.855 19.86 121.488 19.98 121.168 20.22C120.862 20.46 120.602 20.7933 120.388 21.22C120.175 21.6467 120.008 22.1467 119.888 22.72C119.782 23.2933 119.728 23.92 119.728 24.6C119.728 25.6267 119.855 26.4333 120.108 27.02C120.375 27.6067 120.708 28.02 121.108 28.26C121.522 28.5 121.948 28.62 122.388 28.62C122.642 28.62 122.915 28.58 123.208 28.5C123.515 28.42 123.822 28.26 124.128 28.02C124.448 27.78 124.742 27.44 125.008 27L125.348 27.12C125.202 27.6133 124.962 28.1067 124.628 28.6C124.295 29.0933 123.862 29.5 123.328 29.82C122.795 30.1267 122.142 30.28 121.368 30.28C120.502 30.28 119.715 30.0933 119.008 29.72C118.315 29.3333 117.755 28.7467 117.328 27.96C116.915 27.16 116.708 26.1333 116.708 24.88C116.708 23.68 116.922 22.6733 117.348 21.86C117.788 21.0333 118.382 20.4133 119.128 20C119.875 19.5867 120.722 19.38 121.668 19.38ZM131.55 19.38C132.523 19.38 133.377 19.56 134.11 19.92C134.843 20.28 135.417 20.86 135.83 21.66C136.243 22.46 136.45 23.52 136.45 24.84C136.45 26.16 136.243 27.22 135.83 28.02C135.417 28.8067 134.843 29.38 134.11 29.74C133.377 30.1 132.523 30.28 131.55 30.28C130.603 30.28 129.757 30.1 129.01 29.74C128.277 29.38 127.697 28.8067 127.27 28.02C126.857 27.22 126.65 26.16 126.65 24.84C126.65 23.52 126.857 22.46 127.27 21.66C127.697 20.86 128.277 20.28 129.01 19.92C129.757 19.56 130.603 19.38 131.55 19.38ZM131.55 19.78C131.017 19.78 130.57 20.18 130.21 20.98C129.85 21.7667 129.67 23.0533 129.67 24.84C129.67 26.6267 129.85 27.9133 130.21 28.7C130.57 29.4867 131.017 29.88 131.55 29.88C132.097 29.88 132.543 29.4867 132.89 28.7C133.25 27.9133 133.43 26.6267 133.43 24.84C133.43 23.0533 133.25 21.7667 132.89 20.98C132.543 20.18 132.097 19.78 131.55 19.78ZM145.139 19.38C145.699 19.38 146.152 19.4533 146.499 19.6C146.859 19.7333 147.139 19.92 147.339 20.16C147.552 20.4133 147.705 20.74 147.799 21.14C147.905 21.54 147.959 22.08 147.959 22.76V28.14C147.959 28.7 148.052 29.08 148.239 29.28C148.439 29.48 148.772 29.58 149.239 29.58V30C148.985 29.9867 148.605 29.9733 148.099 29.96C147.592 29.9333 147.092 29.92 146.599 29.92C146.092 29.92 145.592 29.9333 145.099 29.96C144.619 29.9733 144.252 29.9867 143.999 30V29.58C144.399 29.58 144.679 29.48 144.839 29.28C144.999 29.08 145.079 28.7 145.079 28.14V21.92C145.079 21.5867 145.045 21.3 144.979 21.06C144.912 20.8067 144.792 20.6133 144.619 20.48C144.445 20.3333 144.185 20.26 143.839 20.26C143.479 20.26 143.145 20.36 142.839 20.56C142.545 20.76 142.305 21.04 142.119 21.4C141.945 21.7467 141.859 22.14 141.859 22.58V28.14C141.859 28.7 141.939 29.08 142.099 29.28C142.272 29.48 142.552 29.58 142.939 29.58V30C142.699 29.9867 142.345 29.9733 141.879 29.96C141.425 29.9333 140.952 29.92 140.459 29.92C139.952 29.92 139.432 29.9333 138.899 29.96C138.365 29.9733 137.965 29.9867 137.699 30V29.58C138.165 29.58 138.492 29.48 138.679 29.28C138.879 29.08 138.979 28.7 138.979 28.14V21.84C138.979 21.24 138.885 20.8 138.699 20.52C138.525 20.2267 138.192 20.08 137.699 20.08V19.66C138.125 19.7 138.539 19.72 138.939 19.72C139.499 19.72 140.019 19.7 140.499 19.66C140.992 19.6067 141.445 19.5333 141.859 19.44V21.24C142.192 20.56 142.645 20.08 143.219 19.8C143.792 19.52 144.432 19.38 145.139 19.38ZM155.184 19.38C155.704 19.38 156.177 19.44 156.604 19.56C157.044 19.6667 157.404 19.8067 157.684 19.98C158.031 20.1933 158.297 20.46 158.484 20.78C158.684 21.0867 158.784 21.4467 158.784 21.86C158.784 22.3267 158.637 22.7133 158.344 23.02C158.051 23.3133 157.671 23.46 157.204 23.46C156.737 23.46 156.364 23.3267 156.084 23.06C155.804 22.7933 155.664 22.4333 155.664 21.98C155.664 21.5533 155.797 21.2 156.064 20.92C156.331 20.6267 156.637 20.4333 156.984 20.34C156.877 20.2067 156.717 20.0933 156.504 20C156.291 19.9067 156.051 19.86 155.784 19.86C155.371 19.86 155.004 19.98 154.684 20.22C154.377 20.46 154.117 20.7933 153.904 21.22C153.691 21.6467 153.524 22.1467 153.404 22.72C153.297 23.2933 153.244 23.92 153.244 24.6C153.244 25.6267 153.371 26.4333 153.624 27.02C153.891 27.6067 154.224 28.02 154.624 28.26C155.037 28.5 155.464 28.62 155.904 28.62C156.157 28.62 156.431 28.58 156.724 28.5C157.031 28.42 157.337 28.26 157.644 28.02C157.964 27.78 158.257 27.44 158.524 27L158.864 27.12C158.717 27.6133 158.477 28.1067 158.144 28.6C157.811 29.0933 157.377 29.5 156.844 29.82C156.311 30.1267 155.657 30.28 154.884 30.28C154.017 30.28 153.231 30.0933 152.524 29.72C151.831 29.3333 151.271 28.7467 150.844 27.96C150.431 27.16 150.224 26.1333 150.224 24.88C150.224 23.68 150.437 22.6733 150.864 21.86C151.304 21.0333 151.897 20.4133 152.644 20C153.391 19.5867 154.237 19.38 155.184 19.38ZM165.066 19.38C166.239 19.38 167.159 19.7267 167.826 20.42C168.492 21.1133 168.826 22.2467 168.826 23.82H162.246L162.206 23.44H166.306C166.319 22.7867 166.279 22.1867 166.186 21.64C166.092 21.08 165.946 20.6333 165.746 20.3C165.546 19.9667 165.279 19.8 164.946 19.8C164.479 19.8 164.079 20.0933 163.746 20.68C163.426 21.2667 163.232 22.24 163.166 23.6L163.226 23.72C163.212 23.88 163.199 24.0467 163.186 24.22C163.186 24.3933 163.186 24.5733 163.186 24.76C163.186 25.68 163.312 26.4267 163.566 27C163.832 27.5733 164.166 27.9933 164.566 28.26C164.966 28.5133 165.372 28.64 165.786 28.64C166.066 28.64 166.352 28.6 166.646 28.52C166.952 28.4267 167.259 28.2667 167.566 28.04C167.872 27.8 168.159 27.4667 168.426 27.04L168.786 27.16C168.626 27.6667 168.372 28.16 168.026 28.64C167.679 29.12 167.239 29.5133 166.706 29.82C166.172 30.1267 165.532 30.28 164.786 30.28C163.879 30.28 163.079 30.0867 162.386 29.7C161.692 29.3133 161.146 28.7267 160.746 27.94C160.359 27.1533 160.166 26.1533 160.166 24.94C160.166 23.7 160.372 22.6667 160.786 21.84C161.212 21.0133 161.792 20.4 162.526 20C163.272 19.5867 164.119 19.38 165.066 19.38ZM174.064 19.44V31.64C174.064 32.2667 174.224 32.68 174.544 32.88C174.864 33.0933 175.304 33.2 175.864 33.2V33.62C175.517 33.6067 175.037 33.5867 174.424 33.56C173.824 33.5467 173.184 33.54 172.504 33.54C172.011 33.54 171.524 33.5467 171.044 33.56C170.577 33.5867 170.224 33.6067 169.984 33.62V33.2C170.424 33.2 170.731 33.1067 170.904 32.92C171.091 32.7333 171.184 32.3733 171.184 31.84V21.84C171.184 21.24 171.091 20.8 170.904 20.52C170.717 20.2267 170.384 20.08 169.904 20.08V19.66C170.331 19.7 170.744 19.72 171.144 19.72C171.691 19.72 172.211 19.7 172.704 19.66C173.197 19.6067 173.651 19.5333 174.064 19.44ZM177.164 19.38C177.844 19.38 178.451 19.5667 178.984 19.94C179.517 20.3 179.944 20.8533 180.264 21.6C180.584 22.3333 180.744 23.2533 180.744 24.36C180.744 25.3333 180.631 26.1867 180.404 26.92C180.191 27.6533 179.877 28.2733 179.464 28.78C179.064 29.2733 178.577 29.6467 178.004 29.9C177.444 30.1533 176.811 30.28 176.104 30.28C175.584 30.28 175.111 30.1867 174.684 30C174.257 29.8267 173.931 29.5733 173.704 29.24L173.904 28.98C174.037 29.22 174.224 29.4067 174.464 29.54C174.717 29.6733 175.004 29.74 175.324 29.74C175.924 29.74 176.397 29.54 176.744 29.14C177.091 28.7267 177.337 28.1533 177.484 27.42C177.644 26.6733 177.724 25.7867 177.724 24.76C177.724 23.6133 177.651 22.7133 177.504 22.06C177.357 21.4067 177.157 20.94 176.904 20.66C176.651 20.38 176.344 20.24 175.984 20.24C175.504 20.24 175.064 20.4267 174.664 20.8C174.277 21.1733 174.057 21.7067 174.004 22.4L173.904 21.7C174.144 20.94 174.551 20.3667 175.124 19.98C175.711 19.58 176.391 19.38 177.164 19.38ZM186.036 16.38V19.66H188.396V20.06H186.036V28.14C186.036 28.54 186.109 28.8267 186.256 29C186.403 29.16 186.623 29.24 186.916 29.24C187.156 29.24 187.396 29.1533 187.636 28.98C187.876 28.7933 188.089 28.48 188.276 28.04L188.616 28.22C188.403 28.82 188.076 29.3133 187.636 29.7C187.209 30.0867 186.623 30.28 185.876 30.28C185.436 30.28 185.049 30.22 184.716 30.1C184.383 29.9933 184.103 29.8267 183.876 29.6C183.583 29.3067 183.389 28.9467 183.296 28.52C183.203 28.08 183.156 27.5133 183.156 26.82V20.06H181.476V19.66H183.156V17.02C183.716 17.02 184.229 16.9733 184.696 16.88C185.176 16.7733 185.623 16.6067 186.036 16.38Z" fill="white"/>
</svg>
