<svg width="25" height="24" viewBox="0 0 25 24" fill="none" xmlns="http://www.w3.org/2000/svg">
<g id="ic:baseline-tiktok">
<path id="Vector" d="M17.4738 5.82C16.7902 5.03962 16.4135 4.03743 16.4138 3H13.3238V15.4C13.3 16.071 13.0167 16.7066 12.5335 17.1729C12.0504 17.6393 11.4052 17.8999 10.7338 17.9C9.31378 17.9 8.13378 16.74 8.13378 15.3C8.13378 13.58 9.79378 12.29 11.5038 12.82V9.66C8.05378 9.2 5.03378 11.88 5.03378 15.3C5.03378 18.63 7.79378 21 10.7238 21C13.8638 21 16.4138 18.45 16.4138 15.3V9.01C17.6668 9.90985 19.1711 10.3926 20.7138 10.39V7.3C20.7138 7.3 18.8338 7.39 17.4738 5.82Z" fill="#F1FFF0"/>
</g>
</svg>
