<svg width="95" height="30" viewBox="0 0 95 30" fill="none" xmlns="http://www.w3.org/2000/svg">
<path d="M12.4805 23.5645C11.8294 24.1243 11.1003 24.554 10.293 24.8535C9.48568 25.153 8.64909 25.3027 7.7832 25.3027C7.11914 25.3027 6.47786 25.2148 5.85938 25.0391C5.2474 24.8698 4.67122 24.6289 4.13086 24.3164C3.59701 23.9974 3.10872 23.6165 2.66602 23.1738C2.22331 22.7311 1.84245 22.2428 1.52344 21.709C1.21094 21.1686 0.966797 20.5924 0.791016 19.9805C0.621745 19.362 0.537109 18.7207 0.537109 18.0566C0.537109 17.3926 0.621745 16.7513 0.791016 16.1328C0.966797 15.5143 1.21094 14.9382 1.52344 14.4043C1.84245 13.8639 2.22331 13.3724 2.66602 12.9297C3.10872 12.487 3.59701 12.1094 4.13086 11.7969C4.67122 11.4779 5.2474 11.2337 5.85938 11.0645C6.47786 10.8887 7.11914 10.8008 7.7832 10.8008C8.64909 10.8008 9.48568 10.9505 10.293 11.25C11.1003 11.543 11.8294 11.9727 12.4805 12.5391L10.9961 14.9805C10.5859 14.5378 10.1009 14.1992 9.54102 13.9648C8.98112 13.724 8.39518 13.6035 7.7832 13.6035C7.16471 13.6035 6.58529 13.7207 6.04492 13.9551C5.50456 14.1895 5.03255 14.5085 4.62891 14.9121C4.22526 15.3092 3.90625 15.7812 3.67188 16.3281C3.4375 16.8685 3.32031 17.4447 3.32031 18.0566C3.32031 18.6686 3.4375 19.2448 3.67188 19.7852C3.90625 20.319 4.22526 20.7878 4.62891 21.1914C5.03255 21.5951 5.50456 21.9141 6.04492 22.1484C6.58529 22.3828 7.16471 22.5 7.7832 22.5C8.39518 22.5 8.98112 22.3828 9.54102 22.1484C10.1009 21.9076 10.5859 21.5658 10.9961 21.123L12.4805 23.5645ZM16.4941 25H13.8281V10.3809H16.4941V15C16.8132 14.7591 17.1419 14.5898 17.4805 14.4922C17.819 14.388 18.1641 14.3359 18.5156 14.3359C19.1602 14.3359 19.7656 14.4596 20.332 14.707C20.8984 14.9479 21.39 15.2832 21.8066 15.7129C22.2298 16.1361 22.5618 16.6341 22.8027 17.207C23.0501 17.7734 23.1738 18.3789 23.1738 19.0234V25H20.4883V19.0234H20.5078C20.5078 18.75 20.4557 18.4928 20.3516 18.252C20.2474 18.0046 20.1042 17.7897 19.9219 17.6074C19.7396 17.4251 19.528 17.2819 19.2871 17.1777C19.0462 17.0736 18.7891 17.0215 18.5156 17.0215C18.2357 17.0215 17.972 17.0736 17.7246 17.1777C17.4772 17.2819 17.2624 17.4251 17.0801 17.6074C16.8978 17.7897 16.7546 18.0046 16.6504 18.252C16.5462 18.4928 16.4941 18.75 16.4941 19.0234V25ZM29.2383 22.4414C29.3424 22.474 29.4466 22.4967 29.5508 22.5098C29.6549 22.5163 29.7591 22.5195 29.8633 22.5195C30.1237 22.5195 30.3743 22.4837 30.6152 22.4121C30.8561 22.3405 31.0807 22.2396 31.2891 22.1094C31.5039 21.9727 31.6927 21.8099 31.8555 21.6211C32.0247 21.4258 32.1615 21.2109 32.2656 20.9766L34.2188 22.9395C33.9714 23.291 33.6849 23.6068 33.3594 23.8867C33.0404 24.1667 32.6921 24.4043 32.3145 24.5996C31.9434 24.7949 31.5495 24.9414 31.1328 25.0391C30.7227 25.1432 30.2995 25.1953 29.8633 25.1953C29.1276 25.1953 28.4342 25.0586 27.7832 24.7852C27.1387 24.5117 26.5723 24.1309 26.084 23.6426C25.6022 23.1543 25.2214 22.5749 24.9414 21.9043C24.6615 21.2272 24.5215 20.485 24.5215 19.6777C24.5215 18.8509 24.6615 18.0957 24.9414 17.4121C25.2214 16.7285 25.6022 16.1458 26.084 15.6641C26.5723 15.1823 27.1387 14.8079 27.7832 14.541C28.4342 14.2741 29.1276 14.1406 29.8633 14.1406C30.2995 14.1406 30.7259 14.1927 31.1426 14.2969C31.5592 14.401 31.9531 14.5508 32.3242 14.7461C32.7018 14.9414 33.0534 15.1823 33.3789 15.4688C33.7044 15.7487 33.9909 16.0645 34.2383 16.416L29.2383 22.4414ZM30.6055 16.9434C30.4818 16.8978 30.3581 16.8685 30.2344 16.8555C30.1172 16.8424 29.9935 16.8359 29.8633 16.8359C29.4987 16.8359 29.1536 16.9043 28.8281 17.041C28.5091 17.1712 28.2292 17.36 27.9883 17.6074C27.7539 17.8548 27.5684 18.1543 27.4316 18.5059C27.2949 18.8509 27.2266 19.2415 27.2266 19.6777C27.2266 19.7754 27.2298 19.8861 27.2363 20.0098C27.2493 20.1335 27.2656 20.2604 27.2852 20.3906C27.3112 20.5143 27.3405 20.6348 27.373 20.752C27.4056 20.8691 27.4479 20.9733 27.5 21.0645L30.6055 16.9434ZM38.9746 25H36.3086V17.1973H35.0098V14.541H36.3086V14.043C36.3086 13.3984 36.429 12.793 36.6699 12.2266C36.9173 11.6602 37.2526 11.1686 37.6758 10.752C38.1055 10.3288 38.6035 9.99674 39.1699 9.75586C39.7363 9.50846 40.3418 9.38477 40.9863 9.38477H42.9883V12.041H40.9863C40.6999 12.041 40.4329 12.0931 40.1855 12.1973C39.9447 12.2949 39.7331 12.4349 39.5508 12.6172C39.375 12.793 39.235 13.0046 39.1309 13.252C39.0267 13.4928 38.9746 13.7565 38.9746 14.043V14.541H42.2461V17.1973H38.9746V25ZM60.6055 20.8008C60.6055 21.3802 60.4948 21.9238 60.2734 22.4316C60.0521 22.9395 59.7493 23.3854 59.3652 23.7695C58.9876 24.1471 58.5449 24.4466 58.0371 24.668C57.5293 24.8893 56.9857 25 56.4062 25H49.4043V10.9961H56.4062C56.9857 10.9961 57.5293 11.1068 58.0371 11.3281C58.5449 11.5495 58.9876 11.8522 59.3652 12.2363C59.7493 12.6139 60.0521 13.0566 60.2734 13.5645C60.4948 14.0723 60.6055 14.6159 60.6055 15.1953C60.6055 15.4557 60.5697 15.7227 60.498 15.9961C60.4264 16.2695 60.3255 16.5332 60.1953 16.7871C60.0651 17.041 59.9089 17.2721 59.7266 17.4805C59.5443 17.6888 59.3424 17.8613 59.1211 17.998C59.349 18.1217 59.554 18.291 59.7363 18.5059C59.9186 18.7142 60.0749 18.9453 60.2051 19.1992C60.3353 19.4531 60.4329 19.7201 60.498 20C60.5697 20.2734 60.6055 20.5404 60.6055 20.8008ZM52.207 22.1973H56.4062C56.6016 22.1973 56.7839 22.1615 56.9531 22.0898C57.1224 22.0182 57.2689 21.9206 57.3926 21.7969C57.5228 21.6667 57.6237 21.5169 57.6953 21.3477C57.7669 21.1784 57.8027 20.9961 57.8027 20.8008C57.8027 20.6055 57.7669 20.4232 57.6953 20.2539C57.6237 20.0846 57.5228 19.9382 57.3926 19.8145C57.2689 19.6842 57.1224 19.5833 56.9531 19.5117C56.7839 19.4401 56.6016 19.4043 56.4062 19.4043H52.207V22.1973ZM52.207 16.6016H56.4062C56.6016 16.6016 56.7839 16.5658 56.9531 16.4941C57.1224 16.4225 57.2689 16.3249 57.3926 16.2012C57.5228 16.071 57.6237 15.9212 57.6953 15.752C57.7669 15.5762 57.8027 15.3906 57.8027 15.1953C57.8027 15 57.7669 14.8177 57.6953 14.6484C57.6237 14.4792 57.5228 14.3327 57.3926 14.209C57.2689 14.0788 57.1224 13.9779 56.9531 13.9062C56.7839 13.8346 56.6016 13.7988 56.4062 13.7988H52.207V16.6016ZM72.5488 19.6777C72.5488 20.459 72.4089 21.1882 72.1289 21.8652C71.849 22.5358 71.4681 23.1185 70.9863 23.6133C70.5046 24.1016 69.9382 24.4889 69.2871 24.7754C68.6426 25.0553 67.9492 25.1953 67.207 25.1953C66.4714 25.1953 65.778 25.0553 65.127 24.7754C64.4824 24.4889 63.916 24.1016 63.4277 23.6133C62.946 23.1185 62.5651 22.5358 62.2852 21.8652C62.0052 21.1882 61.8652 20.459 61.8652 19.6777C61.8652 18.8835 62.0052 18.1478 62.2852 17.4707C62.5651 16.7936 62.946 16.2109 63.4277 15.7227C63.916 15.2279 64.4824 14.8405 65.127 14.5605C65.778 14.2806 66.4714 14.1406 67.207 14.1406C67.9492 14.1406 68.6426 14.2741 69.2871 14.541C69.9382 14.8014 70.5046 15.1758 70.9863 15.6641C71.4681 16.1458 71.849 16.7285 72.1289 17.4121C72.4089 18.0892 72.5488 18.8444 72.5488 19.6777ZM69.8633 19.6777C69.8633 19.248 69.7917 18.8607 69.6484 18.5156C69.5117 18.1641 69.3229 17.8646 69.082 17.6172C68.8411 17.3633 68.5579 17.1712 68.2324 17.041C67.9134 16.9043 67.5716 16.8359 67.207 16.8359C66.8424 16.8359 66.4974 16.9043 66.1719 17.041C65.8529 17.1712 65.5729 17.3633 65.332 17.6172C65.0977 17.8646 64.9121 18.1641 64.7754 18.5156C64.6387 18.8607 64.5703 19.248 64.5703 19.6777C64.5703 20.0814 64.6387 20.4557 64.7754 20.8008C64.9121 21.1458 65.0977 21.4453 65.332 21.6992C65.5729 21.9531 65.8529 22.1549 66.1719 22.3047C66.4974 22.4479 66.8424 22.5195 67.207 22.5195C67.5716 22.5195 67.9134 22.4512 68.2324 22.3145C68.5579 22.1777 68.8411 21.9857 69.082 21.7383C69.3229 21.4909 69.5117 21.1914 69.6484 20.8398C69.7917 20.4883 69.8633 20.1009 69.8633 19.6777ZM84.4922 19.6777C84.4922 20.498 84.3522 21.2467 84.0723 21.9238C83.7923 22.6009 83.4115 23.1836 82.9297 23.6719C82.4479 24.1536 81.8815 24.528 81.2305 24.7949C80.5859 25.0618 79.8926 25.1953 79.1504 25.1953C78.4147 25.1953 77.7214 25.0586 77.0703 24.7852C76.4258 24.5117 75.8594 24.1309 75.3711 23.6426C74.8893 23.1543 74.5085 22.5749 74.2285 21.9043C73.9486 21.2272 73.8086 20.485 73.8086 19.6777V10.3809H76.4844V15.2637C76.6276 15.0814 76.8001 14.9186 77.002 14.7754C77.2103 14.6322 77.4316 14.515 77.666 14.4238C77.9069 14.3327 78.1543 14.2643 78.4082 14.2188C78.6621 14.1667 78.9095 14.1406 79.1504 14.1406C79.8926 14.1406 80.5859 14.2806 81.2305 14.5605C81.8815 14.834 82.4479 15.2181 82.9297 15.7129C83.4115 16.2077 83.7923 16.7936 84.0723 17.4707C84.3522 18.1413 84.4922 18.877 84.4922 19.6777ZM81.8066 19.6777C81.8066 19.2741 81.735 18.8997 81.5918 18.5547C81.4551 18.2031 81.2663 17.9004 81.0254 17.6465C80.7845 17.3926 80.5013 17.194 80.1758 17.0508C79.8568 16.9076 79.515 16.8359 79.1504 16.8359C78.7858 16.8359 78.4408 16.9173 78.1152 17.0801C77.7962 17.2363 77.5163 17.4479 77.2754 17.7148C77.0345 17.9753 76.8457 18.278 76.709 18.623C76.5723 18.9616 76.5039 19.3132 76.5039 19.6777C76.5039 20.0814 76.5723 20.4557 76.709 20.8008C76.8457 21.1458 77.0345 21.4453 77.2754 21.6992C77.5163 21.9531 77.7962 22.1549 78.1152 22.3047C78.4408 22.4479 78.7858 22.5195 79.1504 22.5195C79.515 22.5195 79.8568 22.4479 80.1758 22.3047C80.5013 22.1549 80.7845 21.9531 81.0254 21.6992C81.2663 21.4453 81.4551 21.1458 81.5918 20.8008C81.735 20.4557 81.8066 20.0814 81.8066 19.6777Z" fill="white"/>
<g clip-path="url(#clip0_24_1670)">
<path fill-rule="evenodd" clip-rule="evenodd" d="M83.3595 4.36239C83.8491 3.91497 84.4558 3.61589 85.1089 3.5C85.7619 3.38411 86.4345 3.45617 87.0482 3.7078C87.6619 3.95942 88.1915 4.38025 88.5752 4.92125C88.9589 5.46226 89.181 6.10116 89.2156 6.76353C90.0313 7.05649 90.7236 7.61722 91.1797 8.35422C91.6357 9.09123 91.8285 9.96103 91.7267 10.8217C91.6248 11.6824 91.2343 12.4832 90.6189 13.0934C90.0034 13.7036 89.1993 14.0872 88.3378 14.1817L87.5786 16.0334C87.3512 16.588 87.1618 17.05 86.9622 17.3961C86.7515 17.7623 86.4934 18.065 86.0971 18.2303C85.7011 18.3965 85.3043 18.3678 84.8957 18.2608C84.509 18.1599 84.0464 17.9702 83.4925 17.7431L79.7274 16.1994C79.1735 15.9722 78.7108 15.7826 78.3647 15.583C77.9985 15.3723 77.6958 15.1142 77.5305 14.7179C77.3643 14.3219 77.393 13.9251 77.5 13.5165C77.6009 13.1298 77.7903 12.6678 78.0177 12.1133L78.7767 10.2622C78.2295 9.59011 77.9262 8.75241 77.9162 7.88578C77.9063 7.01916 78.1904 6.17474 78.722 5.4903C79.2537 4.80585 80.0016 4.32178 80.8438 4.11705C81.686 3.91232 82.5729 3.99841 83.3595 4.36239ZM82.7025 5.17382C82.1 4.95871 81.4424 4.95383 80.8368 5.15999C80.2312 5.36614 79.7131 5.77119 79.367 6.30922C79.0209 6.84726 78.867 7.48659 78.9304 8.1232C78.9939 8.7598 79.2709 9.35619 79.7165 9.81532C79.7842 9.88512 79.83 9.97315 79.8485 10.0686C79.8669 10.1641 79.8571 10.2629 79.8203 10.3529L79.146 11.9974L86.8564 15.1588L87.5307 13.5143C87.5676 13.4243 87.63 13.3471 87.7101 13.292C87.7903 13.237 87.8848 13.2065 87.982 13.2043C88.6217 13.1902 89.2379 12.9599 89.7301 12.551C90.2223 12.1421 90.5617 11.5787 90.693 10.9524C90.8242 10.326 90.7397 9.67376 90.453 9.10163C90.1664 8.5295 89.6946 8.07121 89.1144 7.80136C89.0742 7.96071 89.0224 8.11886 88.9584 8.27492L88.8317 8.58395C88.7814 8.70664 88.6844 8.80433 88.562 8.85552C88.4397 8.9067 88.3021 8.90719 88.1794 8.85689C88.0567 8.80658 87.959 8.70959 87.9078 8.58726C87.8566 8.46493 87.8561 8.32728 87.9064 8.20458L88.0329 7.89616C88.1578 7.59244 88.2216 7.26707 88.2206 6.93867C88.2196 6.61027 88.1538 6.28529 88.027 5.98233C87.9003 5.67938 87.715 5.4044 87.4818 5.17315C87.2487 4.94189 86.9722 4.75889 86.6682 4.63463C86.0547 4.38346 85.3665 4.38611 84.755 4.642C84.1434 4.89789 83.6585 5.38608 83.4066 5.99933L83.2802 6.30774C83.2299 6.43044 83.1329 6.52812 83.0106 6.57931C82.8882 6.63049 82.7506 6.63099 82.6279 6.58068C82.5052 6.53037 82.4075 6.43339 82.3563 6.31105C82.3051 6.18872 82.3046 6.05107 82.3549 5.92837L82.4814 5.61996C82.5454 5.4639 82.6195 5.31486 82.7025 5.17382ZM86.4755 16.0841C86.4755 16.0841 78.9093 12.5711 78.7676 12.9237C78.6259 13.2763 78.5258 13.5451 78.4676 13.7698C78.3892 14.0698 78.4051 14.219 78.4531 14.3324C78.5004 14.4454 78.5948 14.5612 78.8632 14.7167C79.145 14.8783 79.5442 15.0435 80.1388 15.2873L83.8398 16.8047C84.4344 17.0485 84.8346 17.2112 85.149 17.2933C85.449 17.3716 85.5982 17.3557 85.7116 17.3078C85.8246 17.2604 85.9404 17.166 86.0959 16.8976C86.2118 16.6958 86.3292 16.4341 86.4755 16.0841Z" fill="white"/>
<path d="M86.4755 16.0841C86.4755 16.0841 78.9093 12.5711 78.7676 12.9237C78.6259 13.2763 78.5258 13.5451 78.4676 13.7698C78.3892 14.0698 78.4051 14.219 78.4531 14.3324C78.5004 14.4454 78.5948 14.5612 78.8632 14.7167C79.145 14.8783 79.5442 15.0435 80.1388 15.2873L83.8398 16.8047C84.4344 17.0485 84.8346 17.2112 85.149 17.2933C85.449 17.3716 85.5982 17.3557 85.7116 17.3078C85.8246 17.2604 85.9404 17.166 86.0959 16.8976C86.2118 16.6958 86.3292 16.4341 86.4755 16.0841Z" fill="white"/>
<path d="M82.7025 5.17382C82.1 4.95871 81.4424 4.95383 80.8368 5.15999C80.2312 5.36614 79.7131 5.77119 79.367 6.30922C79.0209 6.84726 78.867 7.48659 78.9304 8.1232C78.9939 8.7598 79.2709 9.35619 79.7165 9.81532C79.7842 9.88512 79.83 9.97315 79.8485 10.0686C79.8669 10.1641 79.8571 10.2629 79.8203 10.3529L79.146 11.9974L86.8564 15.1588L87.5307 13.5143C87.5676 13.4243 87.63 13.3471 87.7101 13.292C87.7903 13.237 87.8848 13.2065 87.982 13.2043C88.6217 13.1902 89.2379 12.9599 89.7301 12.551C90.2223 12.1421 90.5617 11.5787 90.693 10.9524C90.8242 10.326 90.7397 9.67376 90.453 9.10163C90.1664 8.5295 89.6946 8.07121 89.1144 7.80136C89.0742 7.96071 89.0224 8.11886 88.9584 8.27492L88.8317 8.58395C88.7814 8.70664 88.6844 8.80433 88.562 8.85552C88.4397 8.9067 88.3021 8.90719 88.1794 8.85689C88.0567 8.80658 87.959 8.70959 87.9078 8.58726C87.8566 8.46493 87.8561 8.32728 87.9064 8.20458L88.0329 7.89616C88.1578 7.59244 88.2216 7.26707 88.2206 6.93867C88.2196 6.61027 88.1538 6.28529 88.027 5.98233C87.9003 5.67938 87.715 5.4044 87.4818 5.17315C87.2487 4.94189 86.9722 4.75889 86.6682 4.63463C86.0547 4.38346 85.3665 4.38611 84.755 4.642C84.1434 4.89789 83.6585 5.38608 83.4066 5.99933L83.2802 6.30774C83.2299 6.43044 83.1329 6.52812 83.0106 6.57931C82.8882 6.63049 82.7506 6.63099 82.6279 6.58068C82.5052 6.53037 82.4075 6.43339 82.3563 6.31105C82.3051 6.18872 82.3046 6.05107 82.3549 5.92837L82.4814 5.61996C82.5454 5.4639 82.6195 5.31486 82.7025 5.17382Z" fill="#F4930B"/>
</g>
<defs>
<clipPath id="clip0_24_1670">
<rect width="16" height="16" fill="white" transform="translate(80.0698) rotate(22.2945)"/>
</clipPath>
</defs>
</svg>
