<svg width="25" height="24" viewBox="0 0 25 24" fill="none" xmlns="http://www.w3.org/2000/svg">
<g id="logos:whatsapp-icon">
<path id="Vector" d="M1.10121 11.8564C1.10065 13.8729 1.62753 15.8418 2.62939 17.5773L1.00539 23.5067L7.07349 21.9157C8.75184 22.8294 10.6323 23.3081 12.5433 23.3082H12.5483C18.8567 23.3082 23.9918 18.1749 23.9945 11.8654C23.9957 8.80804 22.8061 5.93307 20.6448 3.77009C18.4839 1.6073 15.61 0.41558 12.5478 0.414185C6.2387 0.414185 1.10391 5.54721 1.1013 11.8564" fill="url(#paint0_linear_43_97)"/>
<path id="Vector_2" d="M0.692537 11.8527C0.691886 13.9417 1.23765 15.981 2.27523 17.7786L0.593002 23.9207L6.87868 22.2726C8.61058 23.2168 10.5605 23.7147 12.5447 23.7154H12.5498C19.0845 23.7154 24.4042 18.3975 24.407 11.8621C24.4081 8.69488 23.1757 5.71656 20.9372 3.47609C18.6984 1.23591 15.7217 0.00130233 12.5498 0C6.01402 0 0.695142 5.31721 0.692537 11.8527ZM4.43579 17.469L4.2011 17.0965C3.21449 15.5277 2.69375 13.7149 2.69449 11.8534C2.69663 6.4213 7.11747 2.00186 12.5536 2.00186C15.1861 2.00298 17.6602 3.02921 19.521 4.89116C21.3817 6.7533 22.4057 9.22865 22.405 11.8614C22.4026 17.2935 17.9817 21.7135 12.5498 21.7135H12.5459C10.7773 21.7126 9.04268 21.2376 7.52993 20.34L7.16993 20.1265L3.43989 21.1045L4.43579 17.4689V17.469Z" fill="url(#paint1_linear_43_97)"/>
<path id="Vector_3" d="M9.58633 6.89746C9.36437 6.40416 9.13079 6.39421 8.91972 6.38556C8.74689 6.37811 8.5493 6.37867 8.35191 6.37867C8.15433 6.37867 7.8333 6.453 7.56196 6.74928C7.29033 7.04583 6.52493 7.76249 6.52493 9.22007C6.52493 10.6777 7.58661 12.0864 7.73461 12.2843C7.88279 12.4817 9.78419 15.5686 12.7955 16.7562C15.2982 17.743 15.8075 17.5468 16.3507 17.4973C16.894 17.448 18.1036 16.7808 18.3504 16.089C18.5974 15.3973 18.5974 14.8043 18.5234 14.6804C18.4493 14.557 18.2517 14.4829 17.9554 14.3348C17.6591 14.1866 16.2025 13.4698 15.931 13.371C15.6593 13.2722 15.4619 13.2229 15.2643 13.5195C15.0667 13.8157 14.4994 14.4829 14.3264 14.6804C14.1537 14.8785 13.9807 14.9031 13.6846 14.7549C13.3881 14.6063 12.434 14.2938 11.302 13.2846C10.4212 12.4993 9.82661 11.5296 9.65377 11.2329C9.48093 10.9367 9.63526 10.7762 9.78382 10.6285C9.91693 10.4958 10.0802 10.2826 10.2285 10.1096C10.3762 9.93663 10.4255 9.81318 10.5243 9.6156C10.6232 9.41783 10.5737 9.24481 10.4997 9.09663C10.4255 8.94844 9.84977 7.48323 9.58633 6.89746Z" fill="white"/>
</g>
<defs>
<linearGradient id="paint0_linear_43_97" x1="1150.46" y1="2309.67" x2="1150.46" y2="0.414185" gradientUnits="userSpaceOnUse">
<stop stop-color="#1FAF38"/>
<stop offset="1" stop-color="#60D669"/>
</linearGradient>
<linearGradient id="paint1_linear_43_97" x1="1191.29" y1="2392.07" x2="1191.29" y2="0" gradientUnits="userSpaceOnUse">
<stop stop-color="#F9F9F9"/>
<stop offset="1" stop-color="white"/>
</linearGradient>
</defs>
</svg>
