<svg width="25" height="24" viewBox="0 0 25 24" fill="none" xmlns="http://www.w3.org/2000/svg">
<g id="mdi:youtube">
<path id="Vector" d="M10.8738 15L16.0638 12L10.8738 9V15ZM22.4338 7.17C22.5638 7.64 22.6538 8.27 22.7138 9.07C22.7838 9.87 22.8138 10.56 22.8138 11.16L22.8738 12C22.8738 14.19 22.7138 15.8 22.4338 16.83C22.1838 17.73 21.6038 18.31 20.7038 18.56C20.2338 18.69 19.3738 18.78 18.0538 18.84C16.7538 18.91 15.5638 18.94 14.4638 18.94L12.8738 19C8.68378 19 6.07378 18.84 5.04378 18.56C4.14378 18.31 3.56378 17.73 3.31378 16.83C3.18378 16.36 3.09378 15.73 3.03378 14.93C2.96378 14.13 2.93378 13.44 2.93378 12.84L2.87378 12C2.87378 9.81 3.03378 8.2 3.31378 7.17C3.56378 6.27 4.14378 5.69 5.04378 5.44C5.51378 5.31 6.37378 5.22 7.69378 5.16C8.99378 5.09 10.1838 5.06 11.2838 5.06L12.8738 5C17.0638 5 19.6738 5.16 20.7038 5.44C21.6038 5.69 22.1838 6.27 22.4338 7.17Z" fill="#F1FFF0"/>
</g>
</svg>
