<svg width="25" height="24" viewBox="0 0 25 24" fill="none" xmlns="http://www.w3.org/2000/svg">
<g id="mdi:instagram">
<path id="Vector" d="M8.67378 2H17.0738C20.2738 2 22.8738 4.6 22.8738 7.8V16.2C22.8738 17.7383 22.2627 19.2135 21.175 20.3012C20.0873 21.3889 18.612 22 17.0738 22H8.67378C5.47378 22 2.87378 19.4 2.87378 16.2V7.8C2.87378 6.26174 3.48485 4.78649 4.57256 3.69878C5.66027 2.61107 7.13552 2 8.67378 2ZM8.47378 4C7.519 4 6.60333 4.37928 5.92819 5.05442C5.25306 5.72955 4.87378 6.64522 4.87378 7.6V16.4C4.87378 18.39 6.48378 20 8.47378 20H17.2738C18.2286 20 19.1442 19.6207 19.8194 18.9456C20.4945 18.2705 20.8738 17.3548 20.8738 16.4V7.6C20.8738 5.61 19.2638 4 17.2738 4H8.47378ZM18.1238 5.5C18.4553 5.5 18.7732 5.6317 19.0077 5.86612C19.2421 6.10054 19.3738 6.41848 19.3738 6.75C19.3738 7.08152 19.2421 7.39946 19.0077 7.63388C18.7732 7.8683 18.4553 8 18.1238 8C17.7923 8 17.4743 7.8683 17.2399 7.63388C17.0055 7.39946 16.8738 7.08152 16.8738 6.75C16.8738 6.41848 17.0055 6.10054 17.2399 5.86612C17.4743 5.6317 17.7923 5.5 18.1238 5.5ZM12.8738 7C14.1999 7 15.4716 7.52678 16.4093 8.46447C17.347 9.40215 17.8738 10.6739 17.8738 12C17.8738 13.3261 17.347 14.5979 16.4093 15.5355C15.4716 16.4732 14.1999 17 12.8738 17C11.5477 17 10.2759 16.4732 9.33825 15.5355C8.40056 14.5979 7.87378 13.3261 7.87378 12C7.87378 10.6739 8.40056 9.40215 9.33825 8.46447C10.2759 7.52678 11.5477 7 12.8738 7ZM12.8738 9C12.0781 9 11.3151 9.31607 10.7525 9.87868C10.1898 10.4413 9.87378 11.2044 9.87378 12C9.87378 12.7956 10.1898 13.5587 10.7525 14.1213C11.3151 14.6839 12.0781 15 12.8738 15C13.6694 15 14.4325 14.6839 14.9951 14.1213C15.5577 13.5587 15.8738 12.7956 15.8738 12C15.8738 11.2044 15.5577 10.4413 14.9951 9.87868C14.4325 9.31607 13.6694 9 12.8738 9Z" fill="#F1FFF0"/>
</g>
</svg>
